<svg width="29" height="29" viewBox="0 0 29 29" fill="none" xmlns="http://www.w3.org/2000/svg">
<circle cx="14.5" cy="14.5" r="14.5" fill="#E0EDFF"/>
<path d="M20.0438 16.8125L18.0938 15.5375C17.8982 15.4136 17.6625 15.3698 17.4355 15.4152C17.2086 15.4606 17.0078 15.5917 16.875 15.7812C16.425 16.325 15.8812 17.225 13.8375 15.1812C11.7937 13.1375 12.675 12.575 13.2188 12.125C13.4083 11.9922 13.5394 11.7914 13.5848 11.5645C13.6302 11.3375 13.5864 11.1018 13.4625 10.9062L12.1875 8.95624C12.0187 8.71249 11.7938 8.31874 11.2688 8.39374C10.7438 8.46874 9.375 9.23749 9.375 10.925C9.375 12.6125 10.7062 14.675 12.525 16.4937C14.3438 18.3125 16.4063 19.625 18.075 19.625C19.7438 19.625 20.55 18.125 20.6063 17.75C20.6625 17.375 20.2875 16.9812 20.0438 16.8125Z" fill="#0053C0"/>
</svg>
