<svg width="147" height="147" viewBox="0 0 147 147" fill="none" xmlns="http://www.w3.org/2000/svg">
<circle cx="73.5" cy="73.5" r="73.5" fill="#D5E6FE"/>
<path d="M44.75 80.3125H103.25V99.8125H44.75V80.3125ZM103.25 41.3125C103.25 40.0196 102.736 38.7796 101.822 37.8654C100.908 36.9511 99.6679 36.4375 98.375 36.4375H49.625C48.3321 36.4375 47.0921 36.9511 46.1779 37.8654C45.2636 38.7796 44.75 40.0196 44.75 41.3125V53.5H103.25V41.3125Z" fill="#F27E7C"/>
<path d="M44.75 53.5H103.25V80.3125H44.75V53.5Z" fill="#C3D6E0"/>
<path d="M59.375 99.8125V107.125C59.375 107.771 59.1182 108.391 58.6611 108.849C58.204 109.306 57.584 109.562 56.9375 109.562H49.625C48.9785 109.562 48.3585 109.306 47.9014 108.849C47.4443 108.391 47.1875 107.771 47.1875 107.125V99.8125H59.375ZM100.812 99.8125V107.125C100.812 107.771 100.556 108.391 100.099 108.849C99.6415 109.306 99.0215 109.562 98.375 109.562H91.0625C90.416 109.562 89.796 109.306 89.3389 108.849C88.8818 108.391 88.625 107.771 88.625 107.125V99.8125H100.812Z" fill="#7B8BAF"/>
<path opacity="0.15" d="M52.0625 94.9375V41.3125C52.0625 40.0196 52.5761 38.7796 53.4904 37.8654C54.4046 36.9511 55.6446 36.4375 56.9375 36.4375H49.625C48.3321 36.4375 47.0921 36.9511 46.1779 37.8654C45.2636 38.7796 44.75 40.0196 44.75 41.3125V99.8125H103.25V94.9375H52.0625Z" fill="#000064"/>
<path opacity="0.2" d="M47.1875 99.8125H59.375V104.688H47.1875V99.8125ZM88.625 99.8125H100.812V104.688H88.625V99.8125Z" fill="#000064"/>
<path opacity="0.2" d="M98.375 36.4375H56.9375C55.8511 36.4302 54.7933 36.7859 53.9322 37.4483C53.0711 38.1107 52.4559 39.0418 52.1843 40.0937H92.2812C93.5741 40.0937 94.8141 40.6074 95.7283 41.5216C96.6426 42.4358 97.1562 43.6758 97.1562 44.9687V94.9375H103.25V41.3125C103.25 40.0196 102.736 38.7796 101.822 37.8653C100.908 36.9511 99.6679 36.4375 98.375 36.4375Z" fill="white"/>
<path opacity="0.5" d="M77.9001 80.3125H88.0157L103.25 65.0781V54.9625L77.9001 80.3125ZM75.7063 53.5L48.8938 80.3125H65.4688L92.2813 53.5H75.7063Z" fill="white"/>
<path d="M37.4375 70.5625V80.3125M70.4656 43.75H77.6562H70.4656ZM76.5594 80.3125L88.7469 68.125L76.5594 80.3125ZM59.375 99.8125V107.125C59.375 107.771 59.1182 108.391 58.6611 108.849C58.204 109.306 57.584 109.562 56.9375 109.562H49.625C48.9785 109.562 48.3585 109.306 47.9014 108.849C47.4443 108.391 47.1875 107.771 47.1875 107.125V99.8125H59.375ZM100.812 99.8125V107.125C100.812 107.771 100.556 108.391 100.099 108.849C99.6415 109.306 99.0215 109.562 98.375 109.562H91.0625C90.416 109.562 89.796 109.306 89.3389 108.849C88.8818 108.391 88.625 107.771 88.625 107.125V99.8125H100.812ZM54.6219 90.0625H61.8125H54.6219ZM86.3094 90.0625H93.5H86.3094ZM44.75 53.5H103.25H44.75ZM44.75 80.3125H103.25H44.75ZM110.562 70.5625V80.3125V70.5625Z" stroke="#2E4369" stroke-width="2" stroke-linecap="round" stroke-linejoin="round"/>
<path d="M103.25 80.3125L110.562 73M103.25 99.8125V41.3125C103.25 40.0196 102.736 38.7796 101.822 37.8654C100.908 36.9511 99.6679 36.4375 98.375 36.4375H49.625C48.3321 36.4375 47.0921 36.9511 46.1779 37.8654C45.2636 38.7796 44.75 40.0196 44.75 41.3125V99.8125H103.25ZM44.75 80.3125L37.4375 73L44.75 80.3125Z" stroke="#2E4369" stroke-width="2" stroke-linecap="round" stroke-linejoin="round"/>
</svg>
