<svg width="32" height="21" viewBox="0 0 32 21" fill="none" xmlns="http://www.w3.org/2000/svg">
<path d="M10.7344 0.820312V2.42188C8.44271 3.61979 6.80208 4.86979 5.8125 6.17188C4.82292 7.47396 4.32812 8.89323 4.32812 10.4297C4.32812 11.3411 4.45833 11.9661 4.71875 12.3047C4.95312 12.6693 5.23958 12.8516 5.57812 12.8516C5.91667 12.8516 6.3724 12.7604 6.94531 12.5781C7.51823 12.3698 8.03906 12.2656 8.50781 12.2656C9.57552 12.2656 10.5 12.6693 11.2812 13.4766C12.0885 14.2578 12.4922 15.2214 12.4922 16.3672C12.4922 17.6172 12.0104 18.6979 11.0469 19.6094C10.0833 20.4948 8.88542 20.9375 7.45312 20.9375C5.70833 20.9375 4.13281 20.1823 2.72656 18.6719C1.32031 17.1615 0.617188 15.2995 0.617188 13.0859C0.617188 10.4818 1.47656 8.0599 3.19531 5.82031C4.9401 3.55469 7.45312 1.88802 10.7344 0.820312ZM29.3672 0.9375V2.42188C26.737 3.93229 25.0052 5.28646 24.1719 6.48438C23.3385 7.68229 22.9219 9.08854 22.9219 10.7031C22.9219 11.4323 23.0651 11.9792 23.3516 12.3438C23.638 12.7083 23.9375 12.8906 24.25 12.8906C24.5365 12.8906 24.9661 12.7865 25.5391 12.5781C26.112 12.3698 26.6849 12.2656 27.2578 12.2656C28.3255 12.2656 29.25 12.6562 30.0312 13.4375C30.8385 14.1927 31.2422 15.1302 31.2422 16.25C31.2422 17.526 30.7344 18.6328 29.7188 19.5703C28.7292 20.5078 27.5052 20.9766 26.0469 20.9766C24.3281 20.9766 22.7786 20.2344 21.3984 18.75C20.0182 17.2656 19.3281 15.4167 19.3281 13.2031C19.3281 10.4688 20.2005 7.98177 21.9453 5.74219C23.6901 3.47656 26.1641 1.875 29.3672 0.9375Z" fill="#B1917B"/>
</svg>
